# xmcd CD database file
#
# Track frame offsets:
#	150
#	18277
#	34347
#	51380
#	69245
#	92395
#	111212
#	130392
#	145052
#	160635
#	180297
#
# Disc length: 2662 seconds
#
# Revision: 0
# Processed by: cddbd v1.5.1PL0 Copyright (c) Steve Scherf et al.
# Submitted via: CDex 1.51
#
DISCID=870a640b
DTITLE=Gaspésie - Sous les Oliviers
DYEAR=2000
DGENRE=Jazz
TTITLE0=30 ans demain
TTITLE1=Sous les oliviers
TTITLE2=Ma musette
TTITLE3=Entre Saône et Loire
TTITLE4=Direction meilleur
TTITLE5="S" à je t'aime
TTITLE6=Sur fond turquoise
TTITLE7=Taxi Fez Rabat
TTITLE8=Eléonore
TTITLE9=Polo
TTITLE10=Pas trouvé mieux
EXTD=YEAR: 2000
EXTT0=
EXTT1=
EXTT2=
EXTT3=
EXTT4=
EXTT5=
EXTT6=
EXTT7=
EXTT8=
EXTT9=
EXTT10=
PLAYORDER=
